<?xml version="1.0" encoding="UTF-8" standalone="no"?>
<!-- Created with Inkscape (http://www.inkscape.org/) -->

<svg
   xmlns:dc="http://purl.org/dc/elements/1.1/"
   xmlns:cc="http://creativecommons.org/ns#"
   xmlns:rdf="http://www.w3.org/1999/02/22-rdf-syntax-ns#"
   xmlns:svg="http://www.w3.org/2000/svg"
   xmlns="http://www.w3.org/2000/svg"
   xmlns:sodipodi="http://sodipodi.sourceforge.net/DTD/sodipodi-0.dtd"
   xmlns:inkscape="http://www.inkscape.org/namespaces/inkscape"
   version="1.1"
   id="svg2"
   xml:space="preserve"
   width="480"
   height="168"
   viewBox="0 0 480 168"
   sodipodi:docname="logo_oriz.svg"
   inkscape:version="0.92.3 (2405546, 2018-03-11)"><metadata
     id="metadata8"><rdf:RDF><cc:Work
         rdf:about=""><dc:format>image/svg+xml</dc:format><dc:type
           rdf:resource="http://purl.org/dc/dcmitype/StillImage" /><dc:title></dc:title></cc:Work></rdf:RDF></metadata><defs
     id="defs6" /><sodipodi:namedview
     pagecolor="#ffffff"
     bordercolor="#666666"
     borderopacity="1"
     objecttolerance="10"
     gridtolerance="10"
     guidetolerance="10"
     inkscape:pageopacity="0"
     inkscape:pageshadow="2"
     inkscape:window-width="1321"
     inkscape:window-height="713"
     id="namedview4"
     showgrid="false"
     inkscape:zoom="0.81875"
     inkscape:cx="240"
     inkscape:cy="84"
     inkscape:window-x="1725"
     inkscape:window-y="309"
     inkscape:window-maximized="1"
     inkscape:current-layer="g10" /><g
     id="g10"
     inkscape:groupmode="layer"
     inkscape:label="ink_ext_XXXXXX"
     transform="matrix(1.3333333,0,0,-1.3333333,0,168)"><g
       id="g12"
       transform="scale(0.1)"><path
         d="M 270,540 135,630 0,540 135,450 270,540"
         style="fill:#212d35;fill-opacity:1;fill-rule:nonzero;stroke:none"
         id="path14"
         inkscape:connector-curvature="0" /><path
         d="M 540,900 270,720 405,630 540,720 v 180"
         style="fill:#212d35;fill-opacity:1;fill-rule:nonzero;stroke:none"
         id="path16"
         inkscape:connector-curvature="0" /><path
         d="m 945,810 135,90 -540,360 V 1080 L 945,810"
         style="fill:#48565a;fill-opacity:1;fill-rule:nonzero;stroke:none"
         id="path18"
         inkscape:connector-curvature="0" /><path
         d="m 945,450 135,90 -135,90 -135,-90 135,-90"
         style="fill:#48565a;fill-opacity:1;fill-rule:nonzero;stroke:none"
         id="path20"
         inkscape:connector-curvature="0" /><path
         d="M 540,720 675,630 810,720 540,900 V 720"
         style="fill:#48565a;fill-opacity:1;fill-rule:nonzero;stroke:none"
         id="path22"
         inkscape:connector-curvature="0" /><path
         d="m 945,810 -135,-90 135,-90 135,90 -135,90"
         style="fill:#66cde2;fill-opacity:1;fill-rule:nonzero;stroke:none"
         id="path24"
         inkscape:connector-curvature="0" /><path
         d="M 540,360 810,540 675,630 540,540 V 360"
         style="fill:#66cde2;fill-opacity:1;fill-rule:nonzero;stroke:none"
         id="path26"
         inkscape:connector-curvature="0" /><path
         d="M 1080,720 V 900 L 945,810 Z"
         style="fill:#33bccf;fill-opacity:1;fill-rule:nonzero;stroke:none"
         id="path28"
         inkscape:connector-curvature="0" /><path
         d="M 675,630 810,540 945,630 810,720 675,630"
         style="fill:#33bccf;fill-opacity:1;fill-rule:nonzero;stroke:none"
         id="path30"
         inkscape:connector-curvature="0" /><path
         d="M 135,450 0,360 540,0 V 180 L 135,450"
         style="fill:#b3babc;fill-opacity:1;fill-rule:nonzero;stroke:none"
         id="path32"
         inkscape:connector-curvature="0" /><path
         d="M 540,540 405,630 270,540 540,360 v 180"
         style="fill:#b3babc;fill-opacity:1;fill-rule:nonzero;stroke:none"
         id="path34"
         inkscape:connector-curvature="0" /><path
         d="M 540,180 V 0 L 1080,360 945,450 540,180"
         style="fill:#66cde2;fill-opacity:1;fill-rule:nonzero;stroke:none"
         id="path36"
         inkscape:connector-curvature="0" /><path
         d="M 1080,360 V 540 L 945,450 Z"
         style="fill:#33bccf;fill-opacity:1;fill-rule:nonzero;stroke:none"
         id="path38"
         inkscape:connector-curvature="0" /><path
         d="m 540,1080 v 180 L 0,900 135,810 540,1080"
         style="fill:#212d35;fill-opacity:1;fill-rule:nonzero;stroke:none"
         id="path40"
         inkscape:connector-curvature="0" /><path
         d="m 2850.41,484.172 0.02,-22.981 c 0.01,-16.82 3.97,-29.332 11.9,-37.5 7.91,-8.164 23.48,-12.214 46.7,-12.199 23.23,0.031 44.53,7.942 63.92,23.785 l -0.11,127.848 -72.71,-19.977 c -19.92,-5.625 -33.18,-12.64 -39.8,-21.07 -6.64,-8.426 -9.94,-21.062 -9.92,-37.906 z m -49.99,273.008 c 29.07,9.715 66.07,14.605 110.99,14.644 87.28,0.074 130.95,-39.461 131.02,-118.558 l 0.25,-295.258 -68.91,-0.059 -0.02,31.399 c -22.45,-22.493 -52.03,-33.735 -88.78,-33.774 -70.43,-0.054 -105.68,35.383 -105.74,106.328 l -0.02,25.27 c -0.03,28.586 7.35,51.691 22.14,69.297 14.78,17.633 38.5,31.035 71.16,40.261 l 100.27,27.649 -0.02,28.824 c -0.02,18.891 -5.13,32.543 -15.35,40.957 -10.22,8.418 -31.78,12.61 -64.7,12.582 -32.92,-0.027 -63.68,-5.164 -92.23,-15.402 l -0.06,65.84"
         style="fill:#48565a;fill-opacity:1;fill-rule:nonzero;stroke:none"
         id="path42"
         inkscape:connector-curvature="0" /><path
         d="m 3407.72,484.645 0.02,-22.973 c 0.02,-16.824 3.98,-29.332 11.91,-37.5 7.91,-8.164 23.48,-12.219 46.71,-12.199 23.22,0.019 44.52,7.937 63.9,23.785 l -0.1,127.84 -72.72,-19.969 c -19.9,-5.625 -33.17,-12.645 -39.79,-21.07 -6.63,-8.426 -9.94,-21.067 -9.93,-37.914 z m -49.99,273.011 c 29.09,9.719 66.09,14.61 110.99,14.649 87.29,0.074 130.96,-39.461 131.03,-118.567 l 0.25,-295.254 -68.91,-0.054 -0.03,31.394 c -22.44,-22.488 -52.03,-33.73 -88.77,-33.769 -70.42,-0.059 -105.68,35.371 -105.75,106.324 l -0.02,25.273 c -0.02,28.582 7.36,51.688 22.15,69.297 14.79,17.629 38.5,31.035 71.16,40.258 l 100.28,27.652 -0.03,28.825 c -0.01,18.89 -5.14,32.543 -15.35,40.957 -10.23,8.41 -31.78,12.605 -64.7,12.578 -32.92,-0.028 -63.67,-5.164 -92.24,-15.406 l -0.06,65.843"
         style="fill:#48565a;fill-opacity:1;fill-rule:nonzero;stroke:none"
         id="path44"
         inkscape:connector-curvature="0" /><path
         d="m 2271.8,768.984 c -28.32,-0.023 -58.82,-7.203 -91.47,-21.507 l -0.04,47.703 -68.87,-45.996 0.34,-391.977 71.97,0.066 -0.28,328.176 c 22.44,11.235 44.64,16.887 66.58,16.906 30.11,0.024 45.18,-15.015 45.21,-45.121 l 0.26,-299.871 73.49,0.071 -0.27,312.101 c -0.03,32.149 -9.11,56.758 -27.24,73.867 -18.13,17.051 -41.36,25.606 -69.68,25.582"
         style="fill:#48565a;fill-opacity:1;fill-rule:nonzero;stroke:none"
         id="path46"
         inkscape:connector-curvature="0" /><path
         d="m 1944.45,851.355 0.05,-62.824 71.94,48.047 -0.06,62.824 -71.93,-48.047"
         style="fill:#48565a;fill-opacity:1;fill-rule:nonzero;stroke:none"
         id="path48"
         inkscape:connector-curvature="0" /><path
         d="m 2016.48,773.453 -71.88,-48.019 0.27,-368.364 71.98,0.059 -0.37,416.324"
         style="fill:#48565a;fill-opacity:1;fill-rule:nonzero;stroke:none"
         id="path50"
         inkscape:connector-curvature="0" /><path
         d="m 1777.57,851.637 0.42,-494.711 71.97,0.054 -0.47,542.282 h -0.61 l -71.31,-47.625"
         style="fill:#48565a;fill-opacity:1;fill-rule:nonzero;stroke:none"
         id="path52"
         inkscape:connector-curvature="0" /><path
         d="m 1617.88,477.754 c 0.03,-36.758 -19.85,-55.149 -59.66,-55.176 l -54.35,-0.051 -0.23,263.883 c 26.52,10.215 48.98,15.344 67.35,15.363 31.13,0.024 46.72,-15.015 46.73,-45.117 z m 45.33,265.816 c -18.14,17.075 -42.39,25.606 -72.75,25.578 -30.37,-0.027 -59.34,-5.656 -86.88,-16.898 l -0.12,146.715 h -0.87 l -71.07,-47.461 0.43,-494.871 143.93,0.113 c 34.71,0.031 62.51,9.758 83.43,29.184 20.9,19.414 31.34,47.476 31.31,84.238 l -0.17,198.785 c -0.03,32.649 -9.12,57.535 -27.24,74.617"
         style="fill:#48565a;fill-opacity:1;fill-rule:nonzero;stroke:none"
         id="path54"
         inkscape:connector-curvature="0" /><path
         d="m 2638.39,441.871 c -15.3,-14.293 -36.48,-21.461 -63.53,-21.488 -33.68,-0.031 -50.54,17.055 -50.57,51.265 l -0.15,172.747 c -0.03,38.781 20.63,58.21 61.96,58.246 l 52.06,0.047 z m -0.35,410.352 0.08,-84.469 -61.25,-0.055 c -39.32,-0.031 -69.94,-10.769 -91.84,-32.226 -21.94,-21.45 -32.88,-51.063 -32.85,-88.84 l 0.15,-183.465 c 0.04,-34.711 8.98,-61.371 26.87,-79.992 17.88,-18.606 43.92,-27.903 78.1,-27.871 34.2,0.027 61.75,9.988 82.67,29.922 l 0.03,-27.559 71.19,0.059 -0.46,542.273 h -1.16 l -71.53,-47.777"
         style="fill:#66cde2;fill-opacity:1;fill-rule:nonzero;stroke:none"
         id="path56"
         inkscape:connector-curvature="0" /><path
         d="m 3303.66,427.91 c -18.37,-6.14 -34.95,-9.226 -49.75,-9.238 -30.62,-0.027 -45.94,14.766 -45.97,44.371 l -0.22,258.25 88.8,0.078 -0.05,62.004 -88.8,-0.074 0.01,0.371 -0.05,62.832 -45.93,-30.68 v 0.039 l -71.93,-48.047 0.05,-62.828 45.87,30.641 v -14.395 h 0.07 l 0.23,-263.613 c 0.05,-69.43 35.8,-104.086 107.26,-104.027 12.76,0.011 26.03,1.543 39.81,4.621 4.6,1.023 9.05,2.051 13.39,3.074 4.33,1.024 6.76,1.555 7.27,1.555 l -0.06,65.066"
         style="fill:#48565a;fill-opacity:1;fill-rule:nonzero;stroke:none"
         id="path58"
         inkscape:connector-curvature="0" /></g></g></svg>